<svg id="_x31__x2C_5_px" enable-background="new 0 0 24 24" height="512" viewBox="0 0 24 24" width="512" xmlns="http://www.w3.org/2000/svg"><g><path d="m17.58 7.098h-11.16c-.37 0-.67-.3-.67-.67v-3.571c0-1.354 1.101-2.455 2.455-2.455h7.589c1.354 0 2.455 1.101 2.455 2.455v3.571c.001.37-.299.67-.669.67z" fill="#eceff1"/></g><g><path d="m21.1 17.3h-18.2c-1.105 0-2-.895-2-2v-6.6c0-1.105.895-2 2-2h18.2c1.105 0 2 .895 2 2v6.6c0 1.105-.895 2-2 2z" fill="#607d8b"/></g><g><path d="m16.045 23.25h-8.09c-1.105 0-2-.895-2-2v-6.852c0-.358.29-.648.648-.648h10.795c.358 0 .648.29.648.648v6.852c-.001 1.105-.896 2-2.001 2z" fill="#eceff1"/></g><g><path d="m21.25 18h-2.75c-.414 0-.75-.336-.75-.75s.336-.75.75-.75h2.75c.689 0 1.25-.561 1.25-1.25v-6.5c0-.689-.561-1.25-1.25-1.25h-18.5c-.689 0-1.25.561-1.25 1.25v6.5c0 .689.561 1.25 1.25 1.25h2.75c.414 0 .75.336.75.75s-.336.75-.75.75h-2.75c-1.517 0-2.75-1.233-2.75-2.75v-6.5c0-1.517 1.233-2.75 2.75-2.75h18.5c1.517 0 2.75 1.233 2.75 2.75v6.5c0 1.517-1.233 2.75-2.75 2.75z"/></g><g><path d="m14.25 21h-5.5c-.414 0-.75-.336-.75-.75s.336-.75.75-.75h5.5c.414 0 .75.336.75.75s-.336.75-.75.75z"/></g><g><path d="m10.25 18h-1.5c-.414 0-.75-.336-.75-.75s.336-.75.75-.75h1.5c.414 0 .75.336.75.75s-.336.75-.75.75z"/></g><g><path d="m18.25 7c-.414 0-.75-.336-.75-.75v-3.5c0-.689-.561-1.25-1.25-1.25h-8.5c-.689 0-1.25.561-1.25 1.25v3.5c0 .414-.336.75-.75.75s-.75-.336-.75-.75v-3.5c0-1.517 1.233-2.75 2.75-2.75h8.5c1.517 0 2.75 1.233 2.75 2.75v3.5c0 .414-.336.75-.75.75z"/></g><g><path d="m16.25 24h-8.5c-1.517 0-2.75-1.233-2.75-2.75v-7.5c0-.414.336-.75.75-.75h12.5c.414 0 .75.336.75.75v7.5c0 1.517-1.233 2.75-2.75 2.75zm-9.75-9.5v6.75c0 .689.561 1.25 1.25 1.25h8.5c.689 0 1.25-.561 1.25-1.25v-6.75z"/></g></svg>